<?xml version="1.0" standalone="no"?>
<!DOCTYPE svg PUBLIC "-//W3C//DTD SVG 20010904//EN"
 "http://www.w3.org/TR/2001/REC-SVG-20010904/DTD/svg10.dtd">
<svg version="1.0" xmlns="http://www.w3.org/2000/svg"
 width="250.000000pt" height="250.000000pt" viewBox="0 0 250.000000 250.000000"
 preserveAspectRatio="xMidYMid meet">

<g transform="translate(0.000000,250.000000) scale(0.100000,-0.100000)"
fill="#000000" stroke="none">
<path d="M1112 2088 c-18 -18 -15 -43 8 -63 11 -10 20 -22 20 -27 0 -4 -133
-8 -296 -8 -199 0 -310 -4 -336 -12 -53 -16 -121 -78 -150 -136 -21 -43 -23
-62 -26 -238 -3 -129 0 -199 7 -213 15 -27 57 -28 71 -2 6 12 10 97 10 207 0
180 1 189 24 228 13 23 42 51 64 64 39 21 48 22 337 22 l296 0 -20 -26 c-26
-33 -27 -60 -2 -74 11 -5 23 -10 26 -10 18 0 145 135 145 154 0 28 -118 146
-146 146 -11 0 -25 -5 -32 -12z"/>
<path d="M1657 1983 c-11 -11 -8 -48 5 -61 8 -8 56 -12 152 -12 129 0 142 -2
180 -24 23 -13 51 -42 64 -64 l22 -40 0 -646 c0 -524 -3 -653 -14 -679 -17
-42 -66 -83 -114 -97 -51 -14 -1353 -14 -1404 0 -48 14 -97 55 -114 97 -11 24
-14 93 -14 277 0 209 -2 247 -16 260 -20 20 -38 20 -59 0 -15 -15 -16 -46 -13
-269 l3 -251 30 -60 c33 -64 95 -115 163 -134 50 -14 1394 -14 1444 0 68 19
130 70 163 134 l30 60 0 660 0 661 -23 47 c-29 58 -97 120 -150 136 -41 13
-324 17 -335 5z"/>
<path d="M933 1568 c-27 -13 -47 -59 -38 -87 3 -12 69 -83 146 -158 l140 -137
-146 -141 c-159 -153 -169 -172 -120 -220 l24 -25 311 0 311 0 24 25 c49 48
39 67 -120 220 l-146 141 140 137 c77 75 143 146 146 158 10 29 -12 74 -41 88
-33 15 -600 14 -631 -1z m547 -86 c0 -28 -30 -32 -230 -32 -200 0 -230 4 -230
32 0 4 104 8 230 8 127 0 230 -4 230 -8z m-105 -478 l120 -114 -245 0 -245 0
120 114 c66 63 122 115 125 115 3 0 59 -52 125 -115z"/>
</g>
</svg>
