<svg width="64" height="64" viewBox="0 0 64 64" fill="none" xmlns="http://www.w3.org/2000/svg">
<g clip-path="url(#clip0_221_2159)">
<path d="M64 0H0V64H64V0Z" fill="white"/>
<path d="M28.4672 10.5472C28.0064 11.008 28.0832 11.648 28.672 12.16C28.9536 12.416 29.184 12.7232 29.184 12.8512C29.184 12.9536 25.7792 13.056 21.6064 13.056C16.512 13.056 13.6704 13.1584 13.0048 13.3632C11.648 13.7728 9.9072 15.36 9.1648 16.8448C8.6272 17.9456 8.576 18.432 8.4992 22.9376C8.4224 26.24 8.4992 28.032 8.6784 28.3904C9.0624 29.0816 10.1376 29.1072 10.496 28.4416C10.6496 28.1344 10.752 25.9584 10.752 23.1424C10.752 18.5344 10.7776 18.304 11.3664 17.3056C11.6992 16.7168 12.4416 16 13.0048 15.6672C14.0032 15.1296 14.2336 15.104 21.632 15.104H29.2096L28.6976 15.7696C28.032 16.6144 28.0064 17.3056 28.6464 17.664C28.928 17.792 29.2352 17.92 29.312 17.92C29.7728 17.92 33.024 14.464 33.024 13.9776C33.024 13.2608 30.0032 10.24 29.2864 10.24C29.0048 10.24 28.6464 10.368 28.4672 10.5472Z" fill="black"/>
<path d="M42.4192 13.2352C42.1376 13.5168 42.2144 14.464 42.5472 14.7968C42.752 15.0016 43.9808 15.104 46.4384 15.104C49.7408 15.104 50.0736 15.1552 51.0464 15.7184C51.6352 16.0512 52.352 16.7936 52.6848 17.3568L53.248 18.3808V34.9184C53.248 48.3328 53.1712 51.6352 52.8896 52.3008C52.4544 53.376 51.2 54.4256 49.9712 54.784C48.6656 55.1424 15.3344 55.1424 14.0288 54.784C12.8 54.4256 11.5456 53.376 11.1104 52.3008C10.8288 51.6864 10.752 49.92 10.752 45.2096C10.752 39.8592 10.7008 38.8864 10.3424 38.5536C9.83043 38.0416 9.36963 38.0416 8.83203 38.5536C8.44803 38.9376 8.42243 39.7312 8.49923 45.44L8.57603 51.8656L9.34403 53.4016C10.1888 55.04 11.776 56.3456 13.5168 56.832C14.7968 57.1904 49.2032 57.1904 50.4832 56.832C52.224 56.3456 53.8112 55.04 54.656 53.4016L55.424 51.8656V34.9696V18.048L54.8352 16.8448C54.0928 15.36 52.352 13.7728 50.9952 13.3632C49.9456 13.0304 42.7008 12.928 42.4192 13.2352Z" fill="black"/>
<path d="M23.8848 23.8592C23.1936 24.192 22.6816 25.3696 22.912 26.0864C22.9888 26.3936 24.6784 28.2112 26.6496 30.1312L30.2336 33.6384L26.496 37.248C22.4256 41.1648 22.1696 41.6512 23.424 42.88L24.0384 43.52H32H39.9616L40.576 42.88C41.8304 41.6512 41.5744 41.1648 37.504 37.248L33.7664 33.6384L37.3504 30.1312C39.3216 28.2112 41.0112 26.3936 41.088 26.0864C41.344 25.344 40.7808 24.192 40.0384 23.8336C39.1936 23.4496 24.6784 23.4752 23.8848 23.8592ZM37.888 26.0608C37.888 26.7776 37.12 26.88 32 26.88C26.88 26.88 26.112 26.7776 26.112 26.0608C26.112 25.9584 28.7744 25.856 32 25.856C35.2512 25.856 37.888 25.9584 37.888 26.0608ZM35.2 38.2976L38.272 41.216H32H25.728L28.8 38.2976C30.4896 36.6848 31.9232 35.3536 32 35.3536C32.0768 35.3536 33.5104 36.6848 35.2 38.2976Z" fill="black"/>
</g>
<defs>
<clipPath id="clip0_221_2159">
<rect width="64" height="64" fill="white"/>
</clipPath>
</defs>
</svg>
